<mxfile host="app.diagrams.net" modified="2023-07-29T12:31:19.029Z" agent="Mozilla/5.0 (Windows NT 10.0; WOW64) AppleWebKit/537.36 (KHTML, like Gecko) Chrome/114.0.0.0 YaBrowser/23.7.1.1144 Yowser/2.5 Safari/537.36" etag="3JvSmOVSN2D_DOSlftIl" version="21.6.6" type="github">
  <diagram name="Страница 1" id="ZYvD4t7o0x9wYRXr_OfN">
    <mxGraphModel dx="1386" dy="817" grid="1" gridSize="10" guides="1" tooltips="1" connect="1" arrows="1" fold="1" page="1" pageScale="1" pageWidth="827" pageHeight="1169" math="0" shadow="0">
      <root>
        <mxCell id="0" />
        <mxCell id="1" parent="0" />
        <mxCell id="rcI602aOCkQVJoyDW4Ul-23" style="edgeStyle=orthogonalEdgeStyle;rounded=0;orthogonalLoop=1;jettySize=auto;html=1;entryX=0.5;entryY=0;entryDx=0;entryDy=0;" edge="1" parent="1" source="rcI602aOCkQVJoyDW4Ul-1">
          <mxGeometry relative="1" as="geometry">
            <mxPoint x="390" y="140" as="targetPoint" />
          </mxGeometry>
        </mxCell>
        <mxCell id="rcI602aOCkQVJoyDW4Ul-1" value="Старт" style="ellipse;whiteSpace=wrap;html=1;fillColor=#f8cecc;strokeColor=#b85450;" vertex="1" parent="1">
          <mxGeometry x="325" y="10" width="130" height="80" as="geometry" />
        </mxCell>
        <mxCell id="rcI602aOCkQVJoyDW4Ul-24" style="edgeStyle=orthogonalEdgeStyle;rounded=0;orthogonalLoop=1;jettySize=auto;html=1;exitX=0.5;exitY=1;exitDx=0;exitDy=0;" edge="1" parent="1">
          <mxGeometry relative="1" as="geometry">
            <mxPoint x="390" y="200" as="sourcePoint" />
            <mxPoint x="390" y="260" as="targetPoint" />
          </mxGeometry>
        </mxCell>
        <mxCell id="rcI602aOCkQVJoyDW4Ul-28" style="edgeStyle=orthogonalEdgeStyle;rounded=0;orthogonalLoop=1;jettySize=auto;html=1;exitX=0.5;exitY=1;exitDx=0;exitDy=0;entryX=0.5;entryY=0;entryDx=0;entryDy=0;" edge="1" parent="1" source="rcI602aOCkQVJoyDW4Ul-8" target="rcI602aOCkQVJoyDW4Ul-27">
          <mxGeometry relative="1" as="geometry" />
        </mxCell>
        <mxCell id="rcI602aOCkQVJoyDW4Ul-8" value="Проверка длинны строки массива" style="rounded=1;whiteSpace=wrap;html=1;fillColor=#dae8fc;strokeColor=#6c8ebf;" vertex="1" parent="1">
          <mxGeometry x="330" y="390" width="120" height="60" as="geometry" />
        </mxCell>
        <mxCell id="rcI602aOCkQVJoyDW4Ul-35" style="edgeStyle=orthogonalEdgeStyle;rounded=0;orthogonalLoop=1;jettySize=auto;html=1;entryX=0;entryY=0.25;entryDx=0;entryDy=0;" edge="1" parent="1" source="rcI602aOCkQVJoyDW4Ul-13" target="rcI602aOCkQVJoyDW4Ul-8">
          <mxGeometry relative="1" as="geometry">
            <Array as="points">
              <mxPoint x="260" y="750" />
              <mxPoint x="260" y="410" />
              <mxPoint x="330" y="410" />
            </Array>
          </mxGeometry>
        </mxCell>
        <mxCell id="rcI602aOCkQVJoyDW4Ul-13" value="Добавить строку в новый массив" style="rounded=0;whiteSpace=wrap;html=1;fillColor=#fff2cc;strokeColor=#d6b656;" vertex="1" parent="1">
          <mxGeometry x="330" y="663" width="120" height="60" as="geometry" />
        </mxCell>
        <mxCell id="rcI602aOCkQVJoyDW4Ul-34" style="edgeStyle=orthogonalEdgeStyle;rounded=0;orthogonalLoop=1;jettySize=auto;html=1;entryX=1;entryY=0.4;entryDx=0;entryDy=0;entryPerimeter=0;" edge="1" parent="1" source="rcI602aOCkQVJoyDW4Ul-15" target="rcI602aOCkQVJoyDW4Ul-8">
          <mxGeometry relative="1" as="geometry">
            <Array as="points">
              <mxPoint x="590" y="420" />
              <mxPoint x="450" y="420" />
            </Array>
          </mxGeometry>
        </mxCell>
        <mxCell id="rcI602aOCkQVJoyDW4Ul-15" value="Пропустить строку, перейти к следующей" style="rounded=0;whiteSpace=wrap;html=1;fillColor=#fff2cc;strokeColor=#d6b656;" vertex="1" parent="1">
          <mxGeometry x="530" y="525" width="120" height="60" as="geometry" />
        </mxCell>
        <mxCell id="rcI602aOCkQVJoyDW4Ul-25" style="edgeStyle=orthogonalEdgeStyle;rounded=0;orthogonalLoop=1;jettySize=auto;html=1;" edge="1" parent="1">
          <mxGeometry relative="1" as="geometry">
            <mxPoint x="389.5" y="390" as="targetPoint" />
            <mxPoint x="389.5" y="340" as="sourcePoint" />
          </mxGeometry>
        </mxCell>
        <mxCell id="rcI602aOCkQVJoyDW4Ul-37" style="edgeStyle=orthogonalEdgeStyle;rounded=0;orthogonalLoop=1;jettySize=auto;html=1;exitX=1;exitY=0.5;exitDx=0;exitDy=0;entryX=0;entryY=0.5;entryDx=0;entryDy=0;" edge="1" parent="1" target="rcI602aOCkQVJoyDW4Ul-38">
          <mxGeometry relative="1" as="geometry">
            <mxPoint x="610" y="299.5" as="targetPoint" />
            <mxPoint x="450" y="299.5" as="sourcePoint" />
          </mxGeometry>
        </mxCell>
        <mxCell id="rcI602aOCkQVJoyDW4Ul-29" style="edgeStyle=orthogonalEdgeStyle;rounded=0;orthogonalLoop=1;jettySize=auto;html=1;entryX=0.5;entryY=0;entryDx=0;entryDy=0;" edge="1" parent="1" source="rcI602aOCkQVJoyDW4Ul-27" target="rcI602aOCkQVJoyDW4Ul-13">
          <mxGeometry relative="1" as="geometry" />
        </mxCell>
        <mxCell id="rcI602aOCkQVJoyDW4Ul-30" style="edgeStyle=orthogonalEdgeStyle;rounded=0;orthogonalLoop=1;jettySize=auto;html=1;exitX=1;exitY=0.5;exitDx=0;exitDy=0;entryX=0;entryY=0.5;entryDx=0;entryDy=0;" edge="1" parent="1" source="rcI602aOCkQVJoyDW4Ul-27" target="rcI602aOCkQVJoyDW4Ul-15">
          <mxGeometry relative="1" as="geometry" />
        </mxCell>
        <mxCell id="rcI602aOCkQVJoyDW4Ul-27" value="Если длина меньше&amp;nbsp; или &lt;br&gt;равна 3 символов" style="rhombus;whiteSpace=wrap;html=1;fillColor=#d5e8d4;strokeColor=#82b366;" vertex="1" parent="1">
          <mxGeometry x="305" y="490" width="170" height="130" as="geometry" />
        </mxCell>
        <mxCell id="rcI602aOCkQVJoyDW4Ul-31" value="No" style="text;html=1;align=center;verticalAlign=middle;resizable=0;points=[];autosize=1;strokeColor=none;fillColor=none;" vertex="1" parent="1">
          <mxGeometry x="475" y="525" width="40" height="30" as="geometry" />
        </mxCell>
        <mxCell id="rcI602aOCkQVJoyDW4Ul-32" value="Yes" style="text;html=1;align=center;verticalAlign=middle;resizable=0;points=[];autosize=1;strokeColor=none;fillColor=none;" vertex="1" parent="1">
          <mxGeometry x="400" y="630" width="40" height="30" as="geometry" />
        </mxCell>
        <mxCell id="rcI602aOCkQVJoyDW4Ul-36" value="&#xa;&lt;span style=&quot;color: rgb(0, 0, 0); font-family: Helvetica; font-size: 12px; font-style: normal; font-variant-ligatures: normal; font-variant-caps: normal; font-weight: 400; letter-spacing: normal; orphans: 2; text-align: center; text-indent: 0px; text-transform: none; widows: 2; word-spacing: 0px; -webkit-text-stroke-width: 0px; background-color: rgb(251, 251, 251); text-decoration-thickness: initial; text-decoration-style: initial; text-decoration-color: initial; float: none; display: inline !important;&quot;&gt;Ввод данных массива&lt;/span&gt;&lt;br style=&quot;border-color: var(--border-color); color: rgb(0, 0, 0); font-family: Helvetica; font-size: 12px; font-style: normal; font-variant-ligatures: normal; font-variant-caps: normal; font-weight: 400; letter-spacing: normal; orphans: 2; text-align: center; text-indent: 0px; text-transform: none; widows: 2; word-spacing: 0px; -webkit-text-stroke-width: 0px; background-color: rgb(251, 251, 251); text-decoration-thickness: initial; text-decoration-style: initial; text-decoration-color: initial;&quot;&gt;&lt;span style=&quot;color: rgb(0, 0, 0); font-family: Helvetica; font-size: 12px; font-style: normal; font-variant-ligatures: normal; font-variant-caps: normal; font-weight: 400; letter-spacing: normal; orphans: 2; text-align: center; text-indent: 0px; text-transform: none; widows: 2; word-spacing: 0px; -webkit-text-stroke-width: 0px; background-color: rgb(251, 251, 251); text-decoration-thickness: initial; text-decoration-style: initial; text-decoration-color: initial; float: none; display: inline !important;&quot;&gt;Создание массива&lt;/span&gt;&#xa;&#xa;" style="shape=parallelogram;perimeter=parallelogramPerimeter;whiteSpace=wrap;html=1;fixedSize=1;fillColor=#e1d5e7;strokeColor=#9673a6;" vertex="1" parent="1">
          <mxGeometry x="305" y="140" width="170" height="60" as="geometry" />
        </mxCell>
        <mxCell id="rcI602aOCkQVJoyDW4Ul-39" style="edgeStyle=orthogonalEdgeStyle;rounded=0;orthogonalLoop=1;jettySize=auto;html=1;exitX=0.5;exitY=0.813;exitDx=0;exitDy=0;exitPerimeter=0;" edge="1" parent="1" source="rcI602aOCkQVJoyDW4Ul-38" target="rcI602aOCkQVJoyDW4Ul-40">
          <mxGeometry relative="1" as="geometry">
            <mxPoint x="710" y="420" as="targetPoint" />
            <Array as="points">
              <mxPoint x="640" y="370" />
              <mxPoint x="710" y="370" />
            </Array>
          </mxGeometry>
        </mxCell>
        <mxCell id="rcI602aOCkQVJoyDW4Ul-38" value="Вывод нового массива" style="shape=document;whiteSpace=wrap;html=1;boundedLbl=1;fillColor=#e1d5e7;strokeColor=#9673a6;" vertex="1" parent="1">
          <mxGeometry x="580" y="260" width="120" height="80" as="geometry" />
        </mxCell>
        <mxCell id="rcI602aOCkQVJoyDW4Ul-40" value="Конец" style="ellipse;whiteSpace=wrap;html=1;fillColor=#f8cecc;strokeColor=#b85450;" vertex="1" parent="1">
          <mxGeometry x="650" y="400" width="120" height="80" as="geometry" />
        </mxCell>
        <mxCell id="rcI602aOCkQVJoyDW4Ul-41" value="No" style="text;html=1;align=center;verticalAlign=middle;resizable=0;points=[];autosize=1;strokeColor=none;fillColor=none;" vertex="1" parent="1">
          <mxGeometry x="500" y="260" width="40" height="30" as="geometry" />
        </mxCell>
        <mxCell id="rcI602aOCkQVJoyDW4Ul-42" value="Yes" style="text;html=1;align=center;verticalAlign=middle;resizable=0;points=[];autosize=1;strokeColor=none;fillColor=none;" vertex="1" parent="1">
          <mxGeometry x="394" y="350" width="40" height="30" as="geometry" />
        </mxCell>
        <mxCell id="rcI602aOCkQVJoyDW4Ul-43" value="for i&amp;nbsp; = 0; i &amp;lt; Array.length; i++" style="shape=hexagon;perimeter=hexagonPerimeter2;whiteSpace=wrap;html=1;fixedSize=1;fillColor=#dae8fc;strokeColor=#6c8ebf;" vertex="1" parent="1">
          <mxGeometry x="335" y="260" width="120" height="80" as="geometry" />
        </mxCell>
      </root>
    </mxGraphModel>
  </diagram>
</mxfile>
